<?xml version="1.0" encoding="UTF-8"?><svg xmlns="http://www.w3.org/2000/svg" viewBox="0 0 447.76 216.61"><g id="a"/><g id="b"><g id="c"><g><path d="M40,11.61C-.45,23.16,58.27,87.53,42,99.61s-36.5,44.13-14.25,66.56,101.22,41.44,178.73,19.44,84.06,20.9,106.52,12,66.19-20.7,93-13,30.26-30.42,28-79,35.33-53.3-5-83c-16.23-11.95-79.27-29.14-143.92-20.07-36.08,5.07-54.08,19.07-96.08,19.07-38.12,0-36-20-85-20C22.26,1.61,59.02,6.19,40,11.61Z" style="fill:#e7f5ff;"/><path d="M219.79,216.61s30.95-2.23,32.54-7.24c6.89-21.68-42.12-11.42-32.54,7.24Z" style="fill:#e7f5ff;"/><path d="M.83,112.61s20.66-5.54,21.72-18.01C27.15,40.71-5.57,66.21,.83,112.61Z" style="fill:#e7f5ff;"/></g></g></g></svg>