<?xml version="1.0" encoding="UTF-8"?><svg xmlns="http://www.w3.org/2000/svg" viewBox="0 0 163 162"><g id="a"/><g id="b"><g id="c"><g><path d="M73,3.91c0-2.16-1.75-3.91-3.91-3.91H3.91C1.75,0,0,1.75,0,3.91V69.09c0,2.16,1.75,3.91,3.91,3.91H69.09c2.16,0,3.91-1.75,3.91-3.91V3.91Zm-7,62.09H9V8h57v58Z" style="fill:#474747;"/><path d="M163,3.91c0-2.16-1.75-3.91-3.91-3.91H93.91c-2.16,0-3.91,1.75-3.91,3.91V69.09c0,2.16,1.75,3.91,3.91,3.91h65.19c2.16,0,3.91-1.75,3.91-3.91V3.91Zm-8,62.09h-57V8h57v58Z" style="fill:#474747;"/><path d="M73,92.91c0-2.16-1.75-3.91-3.91-3.91H3.91c-2.16,0-3.91,1.75-3.91,3.91v65.19c0,2.16,1.75,3.91,3.91,3.91H69.09c2.16,0,3.91-1.75,3.91-3.91V92.91Zm-7,61.09H9v-58h57v58Z" style="fill:#474747;"/><path d="M163,92.91c0-2.16-1.75-3.91-3.91-3.91H93.91c-2.16,0-3.91,1.75-3.91,3.91v65.19c0,2.16,1.75,3.91,3.91,3.91h65.19c2.16,0,3.91-1.75,3.91-3.91V92.91Zm-8,61.09h-57v-58h57v58Z" style="fill:#474747;"/></g></g></g></svg>