<?xml version="1.0" encoding="UTF-8"?><svg xmlns="http://www.w3.org/2000/svg" viewBox="0 0 38.59 38.36"><g id="a"/><g id="b"><g id="c"><g id="d" transform="translate(-3169.99 -2395)"><path id="e" d="M17.29,.93C17.29,.42,16.87,0,16.36,0H.93C.42,0,0,.41,0,.92H0v15.44c0,.51,.41,.93,.92,.93h15.44c.51,0,.93-.41,.93-.93h0V.93Zm-1.66,14.7H2.14V1.89H15.63V15.63Z" style="fill:#148aff;"/><path id="f" d="M38.59,.93C38.6,.42,38.18,0,37.67,0h-15.44c-.51,0-.93,.41-.93,.92h0v15.44c0,.51,.41,.93,.92,.93h15.44c.51,0,.93-.41,.93-.93h0V.93Zm-1.89,14.7h-13.5V1.89h13.5V15.63Z" style="fill:#148aff;"/><path id="g" d="M17.29,22c0-.51-.41-.93-.93-.93H.93C.42,21.07,0,21.48,0,21.99H0v15.44c0,.51,.41,.93,.92,.93h15.44c.51,0,.93-.41,.93-.92h0v-15.44Zm-1.66,14.46H2.14v-13.73H15.63v13.73Z" style="fill:#148aff;"/><path id="h" d="M38.59,22c0-.51-.41-.93-.93-.93h-15.43c-.51,0-.93,.41-.93,.92h0v15.44c0,.51,.41,.93,.92,.93h15.44c.51,0,.93-.41,.93-.92h0v-15.44Zm-1.89,14.46h-13.5v-13.73h13.5v13.73Z" style="fill:#148aff;"/></g></g></g></svg>