<?xml version="1.0" encoding="UTF-8"?><svg xmlns="http://www.w3.org/2000/svg" viewBox="0 0 21.13 21"><g id="a"/><g id="b"><g id="c"><g id="d" transform="translate(-3169.99 -2395)"><path id="e" d="M9.46,.51C9.46,.23,9.24,0,8.96,0H.51C.23,0,0,.23,0,.5H0V8.96c0,.28,.23,.51,.5,.51H8.96c.28,0,.51-.23,.51-.51h0V.51Zm-.91,8.05H1.17V1.04h7.39v7.52Z" style="fill:#148aff;"/><path id="f" d="M21.13,.51C21.13,.23,20.9,0,20.63,0H12.17c-.28,0-.51,.23-.51,.5h0V8.96c0,.28,.23,.51,.5,.51h8.45c.28,0,.51-.23,.51-.51h0V.51Zm-1.04,8.05h-7.39V1.04h7.39v7.52Z" style="fill:#148aff;"/><path id="g" d="M9.46,12.04c0-.28-.23-.51-.51-.51H.51C.23,11.54,0,11.76,0,12.04H0v8.45c0,.28,.23,.51,.5,.51H8.96c.28,0,.51-.23,.51-.5h0V12.04Zm-.91,7.92H1.17v-7.52h7.39v7.52Z" style="fill:#148aff;"/><path id="h" d="M21.13,12.04c0-.28-.23-.51-.51-.51H12.17c-.28,0-.51,.23-.51,.5h0v8.45c0,.28,.23,.51,.5,.51h8.45c.28,0,.51-.23,.51-.5h0V12.04Zm-1.04,7.92h-7.39v-7.52h7.39v7.52Z" style="fill:#148aff;"/></g></g></g></svg>