<svg xmlns="http://www.w3.org/2000/svg" width="31.191" height="31" viewBox="0 0 31.191 31">
  <defs>
    <style>
      .cls-1 {
        fill: #00005d;
      }
    </style>
  </defs>
  <g id="Group_157" data-name="Group 157" transform="translate(-3169.99 -2395)">
    <path id="Path_355" data-name="Path 355" class="cls-1" d="M3183.96,2395.748a.748.748,0,0,0-.748-.748h-12.474a.748.748,0,0,0-.748.748v12.474a.748.748,0,0,0,.748.749h12.474a.748.748,0,0,0,.748-.749Zm-1.339,11.881h-10.907v-11.1h10.907Z"/>
    <path id="Path_356" data-name="Path 356" class="cls-1" d="M3273.96,2395.748a.748.748,0,0,0-.749-.748h-12.474a.748.748,0,0,0-.748.748v12.474a.748.748,0,0,0,.748.749h12.474a.748.748,0,0,0,.749-.749Zm-1.53,11.881h-10.907v-11.1h10.907Z" transform="translate(-72.778)"/>
    <path id="Path_357" data-name="Path 357" class="cls-1" d="M3183.96,2484.748a.748.748,0,0,0-.748-.748h-12.474a.748.748,0,0,0-.748.748v12.474a.748.748,0,0,0,.748.748h12.474a.748.748,0,0,0,.748-.748Zm-1.339,11.689h-10.907v-11.1h10.907Z" transform="translate(0 -71.97)"/>
    <path id="Path_358" data-name="Path 358" class="cls-1" d="M3273.96,2484.748a.748.748,0,0,0-.749-.748h-12.474a.748.748,0,0,0-.748.748v12.474a.748.748,0,0,0,.748.748h12.474a.748.748,0,0,0,.749-.748Zm-1.53,11.689h-10.907v-11.1h10.907Z" transform="translate(-72.778 -71.97)"/>
  </g>
</svg>
