<svg xmlns="http://www.w3.org/2000/svg" width="469.424" height="227.094" viewBox="0 0 469.424 227.094">
  <g id="Group_200" data-name="Group 200" transform="translate(-47 -235.359)">
    <path id="Path_1" data-name="Path 1" d="M41.068,369.261c-42.411,12.1,19.156,79.589,2.1,92.258S4.9,507.779,28.225,531.3s106.115,43.442,187.383,20.377,88.127,21.912,111.669,12.581,69.389-21.7,97.5-13.629,31.728-31.89,29.355-82.822,37.039-55.877-5.242-87.016c-17.014-12.53-83.1-30.554-150.881-21.037-37.828,5.311-56.7,19.988-100.731,19.988-39.962,0-37.742-20.968-89.113-20.968-85.7,0-47.153,4.792-67.1,10.484" transform="translate(47.867 -121.727)" fill="#e7f5ff"/>
    <path id="Path_13" data-name="Path 13" d="M219.854,574.639s32.443-2.336,34.114-7.594c7.222-22.731-44.163-11.975-34.114,7.594" transform="translate(57.574 -112.187)" fill="#e7f5ff"/>
    <path id="Path_14" data-name="Path 14" d="M.873,472.037s21.657-5.806,22.773-18.88c4.822-56.508-29.482-29.768-22.773,18.88" transform="translate(47 -118.616)" fill="#e7f5ff"/>
  </g>
</svg>
